<svg width="119" height="65" viewBox="0 0 119 65" fill="none" xmlns="http://www.w3.org/2000/svg">
<rect width="119" height="65" rx="5" fill="url(#paint0_linear_149_3039)"/>
<path fill-rule="evenodd" clip-rule="evenodd" d="M48.2055 12.286L57.6481 13.4946C58.0485 13.553 58.8255 13.8689 58.7295 14.6656C58.6335 15.4623 57.8715 21.3383 57.5025 24.1767C57.4352 24.4279 57.0977 24.92 56.2863 24.8788C55.4749 24.8376 49.5161 24.0192 46.6382 23.6151C46.4494 23.589 46.0921 23.3513 46.1734 22.6094C46.2547 21.8675 47.0163 15.8103 47.3869 12.8744C47.4231 12.648 47.6375 12.2133 48.2055 12.286ZM46.8401 22.8615L48.1406 13.0764L57.8388 14.4269L56.5751 24.075L46.8401 22.8615Z" fill="white" stroke="white" stroke-width="0.141859"/>
<path d="M63.2808 15.8605C62.8932 15.7384 62.6903 15.293 62.8812 14.9363C63.2677 14.2225 63.9742 13.6609 64.9701 13.5644C66.0636 13.4585 66.8611 13.8838 67.303 14.4704C67.6806 14.974 67.9683 15.956 67.5379 16.7492C67.0593 17.627 66.5485 17.9301 66.3114 18.4886C66.2537 18.621 66.2218 18.7274 66.2141 18.9395C66.2052 19.2833 65.9517 19.5756 65.6073 19.6089C65.2025 19.6481 64.8383 19.3311 64.8456 18.9218C64.8505 18.6817 64.8824 18.4297 64.9902 18.1844C65.2859 17.5029 65.9376 17.0546 66.2823 16.4434C66.6476 15.8021 66.3017 14.7036 65.1011 14.8199C64.5566 14.8727 64.2305 15.1908 64.0447 15.5517C63.9075 15.8327 63.5759 15.9494 63.2808 15.8605ZM66.6718 21.3846C66.7214 21.8965 66.3431 22.3559 65.8313 22.4055C65.3194 22.4551 64.86 22.0768 64.8104 21.565C64.7608 21.0531 65.1391 20.5937 65.6509 20.5441C66.1628 20.4945 66.6222 20.8728 66.6718 21.3846Z" fill="white"/>
<g clip-path="url(#clip0_149_3039)">
<path d="M51.1244 16.4985C50.8423 16.3282 50.7676 15.9384 50.9862 15.6939C51.4272 15.2052 52.0913 14.8977 52.8944 15.012C53.7764 15.1375 54.3235 15.6251 54.5597 16.1718C54.761 16.6408 54.8 17.4696 54.3092 18.0125C53.7643 18.6126 53.3038 18.7539 53.0102 19.1486C52.9395 19.2419 52.894 19.3197 52.8474 19.4854C52.7747 19.7545 52.519 19.9364 52.2413 19.8969C51.9148 19.8504 51.6884 19.531 51.7724 19.2098C51.8221 19.0216 51.8955 18.8291 52.0273 18.6564C52.3905 18.1759 52.9898 17.9472 53.3782 17.5315C53.7887 17.096 53.726 16.1642 52.7577 16.0264C52.3186 15.9639 52.0008 16.1523 51.7854 16.4011C51.6236 16.5964 51.34 16.6249 51.1244 16.4985ZM52.7407 21.4996C52.682 21.9125 52.2961 22.2022 51.8833 22.1434C51.4704 22.0846 51.1807 21.6988 51.2395 21.2859C51.2982 20.8731 51.6841 20.5834 52.0969 20.6422C52.5098 20.7009 52.7995 21.0868 52.7407 21.4996Z" fill="white"/>
</g>
<path fill-rule="evenodd" clip-rule="evenodd" d="M58.2549 11.7155L70.227 10.0952C70.737 10.0352 71.7932 10.1672 71.9372 11.1754C72.0813 12.1835 73.0774 19.6368 73.5575 23.2374C73.5575 23.5674 73.3055 24.2816 72.2973 24.4976C71.2891 24.7136 63.7159 25.6678 60.0552 26.1179C59.8152 26.1479 59.2991 25.9738 59.1551 25.0377C59.0111 24.1015 57.9549 16.4262 57.4448 12.7056C57.4148 12.4162 57.5348 11.8129 58.2549 11.7155ZM60.0552 25.1277L58.435 12.7056L70.767 11.1754L72.3873 23.4174L60.0552 25.1277Z" fill="white" stroke="white" stroke-width="0.18003"/>
<path d="M31.9807 52.9396C30.8092 52.9396 29.7661 52.739 28.8514 52.3379C27.9367 51.9367 27.2146 51.3911 26.6851 50.701C26.1555 49.995 25.8586 49.2086 25.7944 48.3421H29.8624C29.9106 48.8075 30.1272 49.1846 30.5123 49.4734C30.8975 49.7623 31.3709 49.9067 31.9325 49.9067C32.446 49.9067 32.8392 49.8104 33.112 49.6179C33.4008 49.4092 33.5453 49.1445 33.5453 48.8235C33.5453 48.4384 33.3447 48.1576 32.9435 47.981C32.5423 47.7885 31.8924 47.5799 30.9938 47.3552C30.0309 47.1305 29.2286 46.8978 28.5867 46.6571C27.9448 46.4004 27.3911 46.0072 26.9258 45.4777C26.4604 44.9321 26.2277 44.2019 26.2277 43.2872C26.2277 42.5169 26.4363 41.8189 26.8536 41.193C27.2868 40.5511 27.9127 40.0457 28.7311 39.6766C29.5655 39.3075 30.5525 39.1229 31.6918 39.1229C33.3768 39.1229 34.7007 39.5402 35.6635 40.3746C36.6424 41.2091 37.204 42.3163 37.3485 43.6964H33.5453C33.4811 43.231 33.2725 42.862 32.9194 42.5892C32.5824 42.3163 32.1331 42.1799 31.5715 42.1799C31.09 42.1799 30.7209 42.2762 30.4642 42.4688C30.2074 42.6453 30.0791 42.894 30.0791 43.215C30.0791 43.6001 30.2796 43.889 30.6808 44.0815C31.0981 44.2741 31.74 44.4667 32.6065 44.6592C33.6014 44.916 34.4118 45.1728 35.0377 45.4295C35.6635 45.6702 36.2091 46.0714 36.6745 46.6331C37.1559 47.1787 37.4046 47.9168 37.4207 48.8476C37.4207 49.6339 37.196 50.34 36.7467 50.9658C36.3134 51.5756 35.6796 52.057 34.8451 52.4101C34.0267 52.7631 33.0719 52.9396 31.9807 52.9396ZM46.0529 52.9396C44.737 52.9396 43.5495 52.6588 42.4904 52.0972C41.4474 51.5355 40.6209 50.7331 40.0111 49.6901C39.4174 48.647 39.1205 47.4274 39.1205 46.0313C39.1205 44.6512 39.4254 43.4397 40.0352 42.3966C40.645 41.3375 41.4795 40.5271 42.5386 39.9654C43.5977 39.4038 44.7852 39.1229 46.1011 39.1229C47.4169 39.1229 48.6044 39.4038 49.6636 39.9654C50.7227 40.5271 51.5571 41.3375 52.1669 42.3966C52.7767 43.4397 53.0816 44.6512 53.0816 46.0313C53.0816 47.4114 52.7687 48.6309 52.1429 49.6901C51.5331 50.7331 50.6906 51.5355 49.6154 52.0972C48.5563 52.6588 47.3688 52.9396 46.0529 52.9396ZM46.0529 49.3771C46.8392 49.3771 47.5052 49.0883 48.0508 48.5106C48.6125 47.9329 48.8933 47.1065 48.8933 46.0313C48.8933 44.9561 48.6205 44.1297 48.0749 43.552C47.5453 42.9743 46.8874 42.6854 46.1011 42.6854C45.2987 42.6854 44.6327 42.9743 44.1032 43.552C43.5736 44.1136 43.3088 44.9401 43.3088 46.0313C43.3088 47.1065 43.5656 47.9329 44.0791 48.5106C44.6087 49.0883 45.2666 49.3771 46.0529 49.3771ZM59.3814 34.9346V52.7471H55.2653V34.9346H59.3814ZM68.4061 48.8957L71.3187 39.3155H75.6996L70.9336 52.7471H65.8546L61.0886 39.3155H65.4936L68.4061 48.8957ZM83.474 48.8957L86.3865 39.3155H90.7674L86.0014 52.7471H80.9224L76.1564 39.3155H80.5614L83.474 48.8957Z" fill="white"/>
<defs>
<linearGradient id="paint0_linear_149_3039" x1="1.74341e-07" y1="25.1373" x2="118.99" y2="27.0982" gradientUnits="userSpaceOnUse">
<stop stop-color="#410744"/>
<stop offset="1" stop-color="#5F2F62"/>
</linearGradient>
<clipPath id="clip0_149_3039">
<rect width="9.09816" height="9.09816" fill="white" transform="translate(48.5549 13.2456) rotate(8.10043)"/>
</clipPath>
</defs>
</svg>
